<svg xmlns="http://www.w3.org/2000/svg" xmlns:xlink="http://www.w3.org/1999/xlink" width="187.087" height="57.238" viewBox="0 0 187.087 57.238"><defs><clipPath id="clip-path"><rect id="Rectangle_24" data-name="Rectangle 24" width="187.087" height="57.238" transform="translate(0 0)" fill="#fff"></rect></clipPath></defs><g id="Group_117" data-name="Group 117" transform="translate(0 0)"><path id="Path_121" data-name="Path 121" d="M159.054,13.407v-.3l6.7,19.805H152.046Zm0-11.883h-7.008l-21.635,55.15H142.9l5.181-13.711h21.938l4.57,13.711h12.493L165.757,1.524Z" fill="#fff"></path><g id="Group_116" data-name="Group 116"><g id="Group_115" data-name="Group 115" clip-path="url(#clip-path)"><path id="Path_122" data-name="Path 122" d="M137.115,29.861c3.657-2.742,5.18-7.313,5.18-12.8,0-5.18-1.218-7.922-5.18-11.883a14.2,14.2,0,0,0-9.445-3.657h-25.6V56.675h11.579V33.822h13.1c3.656-.3,7.312-.609,10.359-3.961M123.4,24.072h-9.75V10.97H123.1a6.46,6.46,0,0,1,6.7,6.094c.3,5.789-3.961,7.313-6.4,7.008" fill="#fff" fill-rule="evenodd"></path><path id="Path_123" data-name="Path 123" d="M62.768,56.675h35.65V47.534H74.042V33.213H98.723V24.986H74.347V10.056H98.723V1.524H62.768Z" fill="#fff" fill-rule="evenodd"></path><path id="Path_124" data-name="Path 124" d="M0,28.337c.609,8.531,2.438,14.321,7.008,19.8,5.18,4.876,11.579,10.36,20.415,8.837.914-7.313-2.438-12.8-7.008-18.892C14.321,31.993,8.836,28.642,0,28.337" fill="#fff" fill-rule="evenodd"></path><path id="Path_125" data-name="Path 125" d="M38.088,38.088c-4.571,6.094-8.227,11.579-7.008,18.892,8.836,1.523,15.235-3.962,20.415-8.837,4.57-5.484,6.4-11.274,7.008-19.805-8.836.3-14.626,3.656-20.415,9.75" fill="#fff" fill-rule="evenodd"></path><path id="Path_126" data-name="Path 126" d="M47.229,21.634c-1.523,1.828-2.438,2.742-4.57,3.047-1.829,0-3.048-1.828-4.266-3.047-.61,1.219-2.743,3.352-4.266,3.352a6.884,6.884,0,0,1-4.875-3.657c-.914,1.524-3.352,3.352-4.876,3.352-1.828,0-3.351-1.523-4.57-3.047-1.524,1.524-3.047,2.742-4.57,2.742-1.829,0-2.743-1.218-3.962-2.742C13.1,29.556,18.587,36.26,28.642,36.869c7.313,0,15.845-4.266,18.587-15.235" fill="#fff" fill-rule="evenodd"></path><path id="Path_127" data-name="Path 127" d="M24.985,15.845a3.726,3.726,0,0,1-.914-2.742A5.078,5.078,0,0,1,25.29,9.751l.1-.1a5.393,5.393,0,0,1,7.479.064l.036.037A4.583,4.583,0,0,1,34.126,13.1a7.292,7.292,0,0,1-.609,2.742,4.806,4.806,0,0,1-2.133,2.133H47.228A15.783,15.783,0,0,0,45.4,10.055c-1.524-2.437-3.047-5.179-5.789-6.7A18.314,18.314,0,0,0,28.946,0,25.908,25.908,0,0,0,19.5,2.743a20.377,20.377,0,0,0-6.095,6.4,18.365,18.365,0,0,0-2.437,8.836H27.423a5.422,5.422,0,0,1-2.438-2.133" fill="#fff" fill-rule="evenodd"></path></g></g></g></svg>