<svg viewBox="0 0 692.15 325.51" xmlns="http://www.w3.org/2000/svg"><g fill="#fff"><path d="m257.2 6.24h-32.12-11.02v10.03 234.48 10.03h11.02 32.12 11.02v-10.03-234.48-10.03z"/><path d="m485.75 308.69c0 1.6 1.37 2.29 3.14 2.29 1.51 0 2.69-.65 3.47-1.67.81-1.05 1.03-2.4 1.03-3.85h-2.14c-2.21 0-5.5.36-5.5 3.24z"/><path d="m123.18 308.69c0 1.6 1.36 2.29 3.14 2.29 1.51 0 2.69-.65 3.47-1.67.81-1.05 1.03-2.4 1.03-3.85h-2.14c-2.21 0-5.5.36-5.5 3.24z"/><path d="m91.51 298.73c-3.21 0-4.75 2.76-4.75 5.56 0 3.09.99 6.47 4.75 6.47s4.79-3.35 4.79-6.47c0-2.87-1.55-5.56-4.79-5.56z"/><path d="m260.9 298.73c-3.21 0-4.09 3.45-4.09 5.96s.92 6.07 4.16 6.07 4.35-3.42 4.35-6.07-1.25-5.96-4.42-5.96z"/><path d="m173.47 298.73c-3.21 0-4.75 2.76-4.75 5.56 0 3.09.99 6.47 4.75 6.47s4.79-3.35 4.79-6.47c0-2.87-1.55-5.56-4.79-5.56z"/><path d="m441.8 298.73c-3.21 0-4.75 2.76-4.75 5.56 0 3.09 1 6.47 4.75 6.47s4.79-3.35 4.79-6.47c0-2.87-1.55-5.56-4.79-5.56z"/><path d="m384.31 293.82-3.72 10.47h7.52l-3.72-10.47z"/><path d="m39.48 298.51c-2.77 0-4.17 1.89-4.39 4.4h8.41c-.15-2.36-1.25-4.4-4.02-4.4z"/><path d="m536.05 298.73c-3.21 0-4.76 2.76-4.76 5.56 0 3.09 1 6.47 4.76 6.47s4.79-3.35 4.79-6.47c0-2.87-1.55-5.56-4.79-5.56z"/><path d="m15.91 292.73h-1.69v6.83h1.69c2.54 0 5.46-.36 5.46-3.53s-2.88-3.31-5.46-3.31z"/><path d="m0 280.12v45.39h574.59v-45.39zm22.55 33.98-3.1-7.92c-.74-1.89-1.4-2.62-3.58-2.62h-1.66v10.54h-5.16v-25.38h5.57c5.53 0 12.13-.18 12.13 6.87 0 2.98-2.03 5.45-5.31 5.89v.07c1.4.11 2.21 1.49 2.73 2.62l4.13 9.92h-5.76zm17.96-3.12c2.4 0 4.46-.87 6.3-1.89v3.96c-1.8.98-3.87 1.49-6.53 1.49-6.27 0-9.92-3.56-9.92-9.71 0-5.42 2.91-9.89 8.81-9.89 7.04 0 9.03 4.76 9.03 11.3h-13.13c.22 3.02 2.36 4.73 5.42 4.73zm16.15 3.56c-1.88 0-3.8-.33-5.61-.8l.3-4c1.55.77 3.17 1.24 4.87 1.24 1.26 0 3.25-.47 3.25-2.29 0-3.67-8.59-1.17-8.59-7.93 0-4.04 3.58-5.82 7.45-5.82 2.32 0 3.83.36 5.38.69l-.33 3.67c-1.51-.51-2.62-.8-4.42-.8-1.33 0-2.91.47-2.91 2.07 0 2.98 8.59 1.09 8.59 7.85 0 4.36-3.94 6.11-7.97 6.11zm19.43 0c-3.87 0-6.01-2.36-6.01-6.07v-9.53h-3.65v-3.56h3.65v-3.74l4.94-1.56v5.31h4.39v3.56h-4.39v8.73c0 1.6.44 3.09 2.32 3.09.88 0 1.73-.19 2.25-.51l.15 3.85c-1.03.29-2.17.44-3.65.44zm15.42 0c-6.27 0-9.92-4.29-9.92-9.67 0-6.18 4.31-9.93 9.92-9.93s9.95 3.74 9.95 9.93c0 5.38-3.65 9.67-9.95 9.67zm25.11-14.54c-.44-.26-1.33-.4-2.21-.4-4.02 0-4.02 4.95-4.02 7.63v6.87h-4.94v-18.72h4.39v4.25h.07c.22-1.74 2.25-4.69 5.2-4.69.48 0 1 0 1.51.15zm14.63 14.1c-.19-.98-.19-2.22-.22-2.8h-.07c-1.14 2.07-3.61 3.24-5.87 3.24-3.35 0-6.63-2-6.63-5.56 0-2.8 1.36-4.43 3.25-5.35 1.88-.91 4.31-1.09 6.38-1.09h2.73c0-3.02-1.37-4.04-4.28-4.04-2.1 0-4.2.8-5.86 2.04l-.15-4.18c1.92-.87 4.5-1.42 6.6-1.42 5.79 0 8.19 2.36 8.19 7.89v2.4c0 1.89.04 3.31.07 4.69.04 1.42.11 2.73.22 4.18h-4.35zm16.56.44c-3.87 0-6.01-2.36-6.01-6.07v-9.53h-3.65v-3.56h3.65v-3.74l4.94-1.56v5.31h4.39v3.56h-4.39v8.73c0 1.6.44 3.09 2.32 3.09.89 0 1.73-.19 2.25-.51l.15 3.85c-1.03.29-2.17.44-3.65.44zm11.76-.44h-4.94v-18.72h4.94zm0-22.14h-4.94v-4.66h4.94zm13.9 22.58c-6.27 0-9.92-4.29-9.92-9.67 0-6.18 4.31-9.93 9.92-9.93s9.96 3.74 9.96 9.93c0 5.38-3.65 9.67-9.96 9.67zm31.27-.44h-4.94v-10c0-2.29-.04-5.38-3.21-5.38-3.58 0-4.35 3.82-4.35 6.22v9.16h-4.94v-18.72h4.68v2.54h.07c1.55-2.15 3.65-2.98 6.23-2.98 4.5 0 6.45 3.12 6.45 7.34v11.82zm20.5 0h-5.16v-25.38h5.16zm22.53 0h-4.94v-10c0-2.29-.04-5.38-3.21-5.38-3.58 0-4.35 3.82-4.35 6.22v9.16h-4.94v-18.72h4.68v2.54h.07c1.54-2.15 3.65-2.98 6.23-2.98 4.5 0 6.45 3.12 6.45 7.34v11.82zm22.53.01h-4.79v-2.11h-.07c-1.47 1.82-3.5 2.54-5.83 2.54-5.83 0-7.97-4.73-7.97-9.85s2.14-9.74 7.97-9.74c2.47 0 4.2.84 5.68 2.62h.07v-10.73h4.94zm22.53-.01h-4.68v-2.54h-.07c-1.51 1.82-3.65 2.98-6.24 2.98-4.5 0-6.45-3.13-6.45-7.35v-11.82h4.94v10c0 2.29.04 5.38 3.21 5.38 3.58 0 4.35-3.82 4.35-6.21v-9.16h4.94zm9.66.44c-1.88 0-3.79-.33-5.6-.8l.29-4c1.55.77 3.17 1.24 4.87 1.24 1.26 0 3.25-.47 3.25-2.29 0-3.67-8.59-1.17-8.59-7.93 0-4.04 3.58-5.82 7.45-5.82 2.32 0 3.83.36 5.38.69l-.33 3.67c-1.51-.51-2.62-.8-4.42-.8-1.33 0-2.91.47-2.91 2.07 0 2.98 8.59 1.09 8.59 7.85 0 4.36-3.95 6.11-7.97 6.11zm19.43 0c-3.87 0-6.01-2.36-6.01-6.07v-9.53h-3.65v-3.56h3.65v-3.74l4.94-1.56v5.31h4.38v3.56h-4.38v8.73c0 1.6.44 3.09 2.32 3.09.89 0 1.73-.19 2.25-.51l.15 3.85c-1.03.29-2.17.44-3.65.44zm18-14.54c-.44-.26-1.33-.4-2.21-.4-4.02 0-4.02 4.95-4.02 7.63v6.87h-4.94v-18.72h4.39v4.25h.07c.22-1.74 2.25-4.69 5.2-4.69.48 0 1 0 1.51.15zm13.49 13.96c-1.58 4.14-2.73 8.22-7.89 8.22-1.18 0-2.36-.18-3.51-.51l.33-3.6c.63.22 1.33.33 2.54.33 1.99 0 3.21-1.35 3.21-3.35l-7.26-19.67h5.46l4.57 13.67h.07l4.57-13.67h5.02l-7.12 18.58zm38.35.14-2.21-5.82h-10.44l-2.25 5.82h-5.35l10.03-25.38h5.83l10.1 25.38h-5.72zm13.16.44c-1.88 0-3.79-.33-5.6-.8l.3-4c1.55.77 3.17 1.24 4.87 1.24 1.26 0 3.25-.47 3.25-2.29 0-3.67-8.59-1.17-8.59-7.93 0-4.04 3.58-5.82 7.45-5.82 2.32 0 3.84.36 5.38.69l-.33 3.67c-1.51-.51-2.62-.8-4.43-.8-1.32 0-2.91.47-2.91 2.07 0 2.98 8.59 1.09 8.59 7.85 0 4.36-3.94 6.11-7.97 6.11zm16.38 0c-1.88 0-3.8-.33-5.61-.8l.3-4c1.55.77 3.17 1.24 4.87 1.24 1.25 0 3.24-.47 3.24-2.29 0-3.67-8.59-1.17-8.59-7.93 0-4.04 3.58-5.82 7.45-5.82 2.32 0 3.84.36 5.38.69l-.33 3.67c-1.51-.51-2.62-.8-4.43-.8-1.33 0-2.91.47-2.91 2.07 0 2.98 8.59 1.09 8.59 7.85 0 4.36-3.94 6.11-7.96 6.11zm20.5 0c-6.27 0-9.92-4.29-9.92-9.67 0-6.18 4.31-9.93 9.92-9.93s9.96 3.74 9.96 9.93c0 5.38-3.65 9.67-9.96 9.67zm21.97 0c-6.23 0-9.37-4.18-9.37-9.89s3.25-9.71 9.18-9.71c1.99 0 3.43.22 4.79.62l-.44 3.85c-.89-.4-1.84-.69-3.36-.69-3.06 0-5.01 2.4-5.01 5.93s1.66 6.11 5.13 6.11c1.4 0 2.95-.51 3.8-.87l.22 4.04c-1.44.44-2.91.62-4.94.62zm13.28-.44h-4.94v-18.72h4.94zm0-22.14h-4.94v-4.66h4.94zm16.78 22.14c-.18-.98-.18-2.22-.22-2.8h-.07c-1.14 2.07-3.61 3.24-5.86 3.24-3.35 0-6.64-2-6.64-5.56 0-2.8 1.36-4.43 3.25-5.35 1.88-.91 4.31-1.09 6.38-1.09h2.73c0-3.02-1.36-4.04-4.28-4.04-2.1 0-4.2.8-5.86 2.04l-.15-4.18c1.92-.87 4.5-1.42 6.6-1.42 5.79 0 8.19 2.36 8.19 7.89v2.4c0 1.89.04 3.31.07 4.69.04 1.42.11 2.73.22 4.18h-4.35zm16.55.44c-3.87 0-6.01-2.36-6.01-6.07v-9.53h-3.65v-3.56h3.65v-3.74l4.94-1.56v5.31h4.39v3.56h-4.39v8.73c0 1.6.44 3.09 2.32 3.09.88 0 1.73-.19 2.25-.51l.15 3.85c-1.03.29-2.17.44-3.65.44zm11.77-.44h-4.94v-18.72h4.94zm0-22.14h-4.94v-4.66h4.94zm13.9 22.58c-6.27 0-9.92-4.29-9.92-9.67 0-6.18 4.31-9.93 9.92-9.93s9.96 3.74 9.96 9.93c0 5.38-3.65 9.67-9.96 9.67zm31.26-.44h-4.94v-10c0-2.29-.04-5.38-3.21-5.38-3.58 0-4.35 3.82-4.35 6.22v9.16h-4.94v-18.72h4.68v2.54h.07c1.54-2.15 3.65-2.98 6.23-2.98 4.5 0 6.45 3.12 6.45 7.34v11.82z"/><path d="m330.4 260.65 92.91-171.33 92.62 171.33h53.55l-146.32-260.65-146.31 260.65h51.46z"/><path d="m115.21 163.42c37.71-6.68 65.67-38.08 65.67-77.56 0-44.5-36.39-79.79-81.6-79.79 0 0-10.08.17-32.27.17h-66.66v254.55h54.16v-94.69l82.83 94.69h66.32zm-60.52-35.24v-78.91h34.94c21.79 0 39.46 17.66 39.46 39.46s-17.67 39.46-39.46 39.46h-34.94z"/></g><path d="m341.22 231.45c1.65.99 4.69-3.69 4.11.79-.96 7.35 12.78 5.26 15.51 4.02 5.8-2.64 11.29-12.68 11.29-12.68 18.22-19.76 135.93-40.9 215.36-57.75 17.03-2.91 38.45-8.8 55.49-9.84 10.53-6.41 30.99-5.04 41.09-11.34 3.07-2.65 11.64-6.65 6.46-9.58-5.13-2.09-29.05 3.19-32.21.21.76-4.4 5.82-2.88 8.67-4.53 2.43-.41-.08-.91-.88-.94-31.47-1.25-89.75 11.71-90.01 9.46-.13-2.98 42.18-9.93 63.05-13.16 10.04-.93 8.06-1.59 5.17-1.78-92.43 7.23-177.58 31.33-261.37 51.49-3.3 1.22-5.41-1.6-2.61-3.09 22.95-10.82 120.46-29.84 191.65-45.99 26.34-4.89 32.11-4.74 56.03-9.1-.41.1 5.55-.79 2.7-1.75-100.22 12.29-165.6 31.78-255.14 49.31-11.28 3.5-13.6 9.06-19.76 10.61-2.48 2.4-23.61 9.72-19.95 22.35 2.04 4.12 3.49 1.51 7.78 1.83-8.95 3.52-8.95 7.69-4.12 5.67 2.43 4.06-6.68 5.63-4.26 7.82 2.25 2.77 9.91-3.83 4.36 2.25-.21 2.86.27 5.02 3.12 2.67 3.42.11-.18 3.87-2.07 4.33-1.88.46-4.71 6.16.53 8.72" fill="#ec2130"/><path d="m650.45 124.03c1.64-.12 2.94-.52 2.91-.89s-1.37-.58-3.01-.47c-1.64.12-2.94.52-2.92.89.03.37 1.38.58 3.01.47" fill="#ec2130"/><path d="m671.34 130.23c1.64-.12 8.22-.42 8.19-.79-.02-.37-6.65-.68-8.29-.56s-2.94.52-2.91.89c.02.37 1.37.58 3.01.47" fill="#ec2130"/><path d="m423.17 0 146.31 260.65h-53.55l-92.62-171.33z" fill="#fff"/><path d="m574.82 244.7c0-8.72 7.07-15.15 15.43-15.15s15.35 6.43 15.35 15.15-7.07 15.23-15.35 15.23-15.43-6.43-15.43-15.23m15.43 12.7c6.87 0 12.3-5.38 12.3-12.7s-5.42-12.61-12.3-12.61-12.37 5.42-12.37 12.61 5.42 12.7 12.37 12.7m-3.21-3.9h-2.65v-17.52h6.67c4.14 0 6.19 1.53 6.19 4.99 0 3.13-1.97 4.5-4.54 4.82l4.98 7.71h-2.98l-4.62-7.6h-3.05zm3.17-9.85c2.25 0 4.26-.16 4.26-2.85 0-2.17-1.96-2.57-3.82-2.57h-3.62v5.42h3.17z" fill="#fff"/></svg>